<mxfile host="app.diagrams.net" modified="2023-06-05T11:41:25.746Z" agent="Mozilla/5.0 (X11; Linux x86_64) AppleWebKit/537.36 (KHTML, like Gecko) Chrome/110.0.0.0 YaBrowser/23.3.3.764 Yowser/2.5 Safari/537.36" etag="yYDmZYtXsZ-XaTIf8gaN" version="21.1.6" type="device">
  <diagram name="Страница 1" id="Wbb-MwMEI4_LJZPYCDE-">
    <mxGraphModel dx="3646" dy="1824" grid="0" gridSize="10" guides="1" tooltips="1" connect="1" arrows="1" fold="1" page="0" pageScale="1" pageWidth="827" pageHeight="1169" math="0" shadow="0">
      <root>
        <mxCell id="0" />
        <mxCell id="1" parent="0" />
        <mxCell id="Drn2X614myOJDq4IEAix-17" value="" style="rounded=0;whiteSpace=wrap;html=1;" vertex="1" parent="1">
          <mxGeometry x="-702" y="-154" width="458" height="448" as="geometry" />
        </mxCell>
        <mxCell id="Drn2X614myOJDq4IEAix-15" value="" style="rounded=0;whiteSpace=wrap;html=1;" vertex="1" parent="1">
          <mxGeometry x="-203" y="-150" width="458" height="448" as="geometry" />
        </mxCell>
        <mxCell id="Drn2X614myOJDq4IEAix-4" style="edgeStyle=none;curved=1;rounded=0;orthogonalLoop=1;jettySize=auto;html=1;endArrow=open;startSize=14;endSize=14;sourcePerimeterSpacing=8;targetPerimeterSpacing=8;" edge="1" parent="1" source="Drn2X614myOJDq4IEAix-1" target="Drn2X614myOJDq4IEAix-3">
          <mxGeometry relative="1" as="geometry" />
        </mxCell>
        <mxCell id="Drn2X614myOJDq4IEAix-12" style="edgeStyle=none;curved=1;rounded=0;orthogonalLoop=1;jettySize=auto;html=1;endArrow=open;startSize=14;endSize=14;sourcePerimeterSpacing=8;targetPerimeterSpacing=8;" edge="1" parent="1" source="Drn2X614myOJDq4IEAix-1" target="Drn2X614myOJDq4IEAix-11">
          <mxGeometry relative="1" as="geometry" />
        </mxCell>
        <mxCell id="Drn2X614myOJDq4IEAix-1" value="User" style="rounded=0;whiteSpace=wrap;html=1;fontSize=30;" vertex="1" parent="1">
          <mxGeometry x="-468" y="-128" width="160" height="80" as="geometry" />
        </mxCell>
        <mxCell id="Drn2X614myOJDq4IEAix-8" style="edgeStyle=none;curved=1;rounded=0;orthogonalLoop=1;jettySize=auto;html=1;endArrow=open;startSize=14;endSize=14;sourcePerimeterSpacing=8;targetPerimeterSpacing=8;" edge="1" parent="1" source="Drn2X614myOJDq4IEAix-2" target="Drn2X614myOJDq4IEAix-7">
          <mxGeometry relative="1" as="geometry" />
        </mxCell>
        <mxCell id="Drn2X614myOJDq4IEAix-14" style="edgeStyle=none;curved=1;rounded=0;orthogonalLoop=1;jettySize=auto;html=1;endArrow=open;startSize=14;endSize=14;sourcePerimeterSpacing=8;targetPerimeterSpacing=8;" edge="1" parent="1" source="Drn2X614myOJDq4IEAix-2" target="Drn2X614myOJDq4IEAix-13">
          <mxGeometry relative="1" as="geometry" />
        </mxCell>
        <mxCell id="Drn2X614myOJDq4IEAix-2" value="User" style="rounded=0;whiteSpace=wrap;html=1;fontSize=30;" vertex="1" parent="1">
          <mxGeometry x="57" y="-128" width="160" height="80" as="geometry" />
        </mxCell>
        <mxCell id="Drn2X614myOJDq4IEAix-3" value="Book" style="rounded=0;whiteSpace=wrap;html=1;fontSize=30;" vertex="1" parent="1">
          <mxGeometry x="-468" y="106" width="160" height="80" as="geometry" />
        </mxCell>
        <mxCell id="Drn2X614myOJDq4IEAix-5" value="1" style="text;html=1;strokeColor=none;fillColor=none;align=center;verticalAlign=middle;whiteSpace=wrap;rounded=0;" vertex="1" parent="1">
          <mxGeometry x="-400" y="-46" width="60" height="30" as="geometry" />
        </mxCell>
        <mxCell id="Drn2X614myOJDq4IEAix-6" value="*" style="text;html=1;strokeColor=none;fillColor=none;align=center;verticalAlign=middle;whiteSpace=wrap;rounded=0;" vertex="1" parent="1">
          <mxGeometry x="-392" y="61" width="60" height="30" as="geometry" />
        </mxCell>
        <mxCell id="Drn2X614myOJDq4IEAix-7" value="Car" style="rounded=0;whiteSpace=wrap;html=1;fontSize=30;" vertex="1" parent="1">
          <mxGeometry x="57" y="106" width="160" height="80" as="geometry" />
        </mxCell>
        <mxCell id="Drn2X614myOJDq4IEAix-9" value="1" style="text;html=1;strokeColor=none;fillColor=none;align=center;verticalAlign=middle;whiteSpace=wrap;rounded=0;" vertex="1" parent="1">
          <mxGeometry x="144" y="-39" width="60" height="30" as="geometry" />
        </mxCell>
        <mxCell id="Drn2X614myOJDq4IEAix-10" value="*" style="text;html=1;strokeColor=none;fillColor=none;align=center;verticalAlign=middle;whiteSpace=wrap;rounded=0;" vertex="1" parent="1">
          <mxGeometry x="137" y="31" width="60" height="30" as="geometry" />
        </mxCell>
        <mxCell id="Drn2X614myOJDq4IEAix-11" value="Name" style="rounded=0;whiteSpace=wrap;html=1;fontSize=30;" vertex="1" parent="1">
          <mxGeometry x="-679" y="-128" width="160" height="80" as="geometry" />
        </mxCell>
        <mxCell id="Drn2X614myOJDq4IEAix-13" value="Name" style="rounded=0;whiteSpace=wrap;html=1;fontSize=30;" vertex="1" parent="1">
          <mxGeometry x="-184" y="-126" width="160" height="80" as="geometry" />
        </mxCell>
        <mxCell id="Drn2X614myOJDq4IEAix-16" value="Aggregate 1" style="text;html=1;strokeColor=none;fillColor=none;align=center;verticalAlign=middle;whiteSpace=wrap;rounded=0;" vertex="1" parent="1">
          <mxGeometry x="-689" y="-184" width="106" height="30" as="geometry" />
        </mxCell>
        <mxCell id="Drn2X614myOJDq4IEAix-18" value="Aggregate 2" style="text;html=1;strokeColor=none;fillColor=none;align=center;verticalAlign=middle;whiteSpace=wrap;rounded=0;" vertex="1" parent="1">
          <mxGeometry x="-189" y="-184" width="106" height="30" as="geometry" />
        </mxCell>
      </root>
    </mxGraphModel>
  </diagram>
</mxfile>
